<mxfile host="app.diagrams.net" modified="2024-03-17T20:44:36.355Z" agent="Mozilla/5.0 (Windows NT 10.0; Win64; x64) AppleWebKit/537.36 (KHTML, like Gecko) Chrome/122.0.0.0 Safari/537.36" etag="qOPtDTEnugH2PBnchwro" version="24.0.7" type="github">
  <diagram id="R2lEEEUBdFMjLlhIrx00" name="Page-1">
    <mxGraphModel dx="1964" dy="1560" grid="1" gridSize="10" guides="1" tooltips="1" connect="1" arrows="1" fold="1" page="1" pageScale="1" pageWidth="850" pageHeight="1100" math="0" shadow="0" extFonts="Permanent Marker^https://fonts.googleapis.com/css?family=Permanent+Marker">
      <root>
        <mxCell id="0" />
        <mxCell id="1" parent="0" />
        <mxCell id="Uoe7jSDMilDtq9U6z6JU-25" style="edgeStyle=orthogonalEdgeStyle;rounded=0;orthogonalLoop=1;jettySize=auto;html=1;exitX=1;exitY=0.25;exitDx=0;exitDy=0;fontFamily=Helvetica;fontSize=12;fontColor=default;" edge="1" parent="1" source="Uoe7jSDMilDtq9U6z6JU-1" target="Uoe7jSDMilDtq9U6z6JU-11">
          <mxGeometry relative="1" as="geometry" />
        </mxCell>
        <mxCell id="Uoe7jSDMilDtq9U6z6JU-28" style="edgeStyle=orthogonalEdgeStyle;rounded=0;orthogonalLoop=1;jettySize=auto;html=1;entryX=0;entryY=0.5;entryDx=0;entryDy=0;fontFamily=Helvetica;fontSize=12;fontColor=default;" edge="1" parent="1" source="Uoe7jSDMilDtq9U6z6JU-1" target="Uoe7jSDMilDtq9U6z6JU-27">
          <mxGeometry relative="1" as="geometry" />
        </mxCell>
        <mxCell id="Uoe7jSDMilDtq9U6z6JU-1" value="Livro" style="rounded=0;whiteSpace=wrap;html=1;" vertex="1" parent="1">
          <mxGeometry x="30" y="148" width="120" height="70" as="geometry" />
        </mxCell>
        <mxCell id="Uoe7jSDMilDtq9U6z6JU-2" value="&lt;span style=&quot;color: rgb(60, 64, 67); font-family: Roboto, Arial, sans-serif; font-size: 14px; letter-spacing: 0.2px; text-align: left;&quot;&gt;ISBN&lt;/span&gt;" style="ellipse;whiteSpace=wrap;html=1;aspect=fixed;" vertex="1" parent="1">
          <mxGeometry x="10" y="30" width="40" height="40" as="geometry" />
        </mxCell>
        <mxCell id="Uoe7jSDMilDtq9U6z6JU-3" value="&lt;div style=&quot;text-align: left;&quot;&gt;&lt;font face=&quot;Roboto, Arial, sans-serif&quot; color=&quot;#3c4043&quot;&gt;&lt;span style=&quot;font-size: 14px; letter-spacing: 0.2px;&quot;&gt;Autor&lt;/span&gt;&lt;/font&gt;&lt;/div&gt;" style="rounded=0;whiteSpace=wrap;html=1;" vertex="1" parent="1">
          <mxGeometry x="550" y="143" width="120" height="60" as="geometry" />
        </mxCell>
        <mxCell id="Uoe7jSDMilDtq9U6z6JU-4" value="Leitor" style="rounded=0;whiteSpace=wrap;html=1;" vertex="1" parent="1">
          <mxGeometry x="32.5" y="370" width="177.5" height="100" as="geometry" />
        </mxCell>
        <mxCell id="Uoe7jSDMilDtq9U6z6JU-5" value="Emprestimo" style="rounded=0;whiteSpace=wrap;html=1;" vertex="1" parent="1">
          <mxGeometry x="650" y="430" width="120" height="60" as="geometry" />
        </mxCell>
        <mxCell id="Uoe7jSDMilDtq9U6z6JU-6" style="edgeStyle=orthogonalEdgeStyle;rounded=0;orthogonalLoop=1;jettySize=auto;html=1;exitX=0.5;exitY=1;exitDx=0;exitDy=0;entryX=0.092;entryY=0.05;entryDx=0;entryDy=0;entryPerimeter=0;" edge="1" parent="1" source="Uoe7jSDMilDtq9U6z6JU-2" target="Uoe7jSDMilDtq9U6z6JU-1">
          <mxGeometry relative="1" as="geometry" />
        </mxCell>
        <mxCell id="Uoe7jSDMilDtq9U6z6JU-8" style="edgeStyle=orthogonalEdgeStyle;rounded=0;orthogonalLoop=1;jettySize=auto;html=1;entryX=0.5;entryY=0;entryDx=0;entryDy=0;" edge="1" parent="1" source="Uoe7jSDMilDtq9U6z6JU-7" target="Uoe7jSDMilDtq9U6z6JU-1">
          <mxGeometry relative="1" as="geometry" />
        </mxCell>
        <mxCell id="Uoe7jSDMilDtq9U6z6JU-7" value="Titulo" style="ellipse;whiteSpace=wrap;html=1;aspect=fixed;" vertex="1" parent="1">
          <mxGeometry x="50" y="30" width="40" height="40" as="geometry" />
        </mxCell>
        <mxCell id="Uoe7jSDMilDtq9U6z6JU-19" style="edgeStyle=orthogonalEdgeStyle;rounded=0;orthogonalLoop=1;jettySize=auto;html=1;entryX=0;entryY=0.5;entryDx=0;entryDy=0;fontFamily=Helvetica;fontSize=12;fontColor=default;" edge="1" parent="1" source="Uoe7jSDMilDtq9U6z6JU-11" target="Uoe7jSDMilDtq9U6z6JU-3">
          <mxGeometry relative="1" as="geometry" />
        </mxCell>
        <mxCell id="Uoe7jSDMilDtq9U6z6JU-11" value="Escreve" style="ellipse;whiteSpace=wrap;html=1;strokeColor=default;align=center;verticalAlign=middle;fontFamily=Helvetica;fontSize=12;fontColor=default;fillColor=default;" vertex="1" parent="1">
          <mxGeometry x="320" y="123" width="120" height="80" as="geometry" />
        </mxCell>
        <mxCell id="Uoe7jSDMilDtq9U6z6JU-12" value="Realizar" style="ellipse;whiteSpace=wrap;html=1;strokeColor=default;align=center;verticalAlign=middle;fontFamily=Helvetica;fontSize=12;fontColor=default;fillColor=default;" vertex="1" parent="1">
          <mxGeometry x="380" y="420" width="120" height="80" as="geometry" />
        </mxCell>
        <mxCell id="Uoe7jSDMilDtq9U6z6JU-14" value="&lt;font style=&quot;font-size: 18px;&quot;&gt;(1,n)&lt;/font&gt;" style="text;html=1;align=center;verticalAlign=middle;resizable=0;points=[];autosize=1;strokeColor=none;fillColor=none;fontFamily=Helvetica;fontSize=12;fontColor=default;" vertex="1" parent="1">
          <mxGeometry x="145" y="125" width="60" height="40" as="geometry" />
        </mxCell>
        <mxCell id="Uoe7jSDMilDtq9U6z6JU-15" value="&lt;font style=&quot;font-size: 18px;&quot;&gt;(1,n)&lt;/font&gt;" style="text;html=1;align=center;verticalAlign=middle;resizable=0;points=[];autosize=1;strokeColor=none;fillColor=none;fontFamily=Helvetica;fontSize=12;fontColor=default;" vertex="1" parent="1">
          <mxGeometry x="490" y="130" width="60" height="40" as="geometry" />
        </mxCell>
        <mxCell id="Uoe7jSDMilDtq9U6z6JU-16" value="&lt;font style=&quot;font-size: 18px;&quot;&gt;(0,n)&lt;/font&gt;" style="text;html=1;align=center;verticalAlign=middle;resizable=0;points=[];autosize=1;strokeColor=none;fillColor=none;fontFamily=Helvetica;fontSize=12;fontColor=default;" vertex="1" parent="1">
          <mxGeometry x="210" y="370" width="60" height="40" as="geometry" />
        </mxCell>
        <mxCell id="Uoe7jSDMilDtq9U6z6JU-21" style="edgeStyle=orthogonalEdgeStyle;rounded=0;orthogonalLoop=1;jettySize=auto;html=1;entryX=0.083;entryY=0.333;entryDx=0;entryDy=0;entryPerimeter=0;fontFamily=Helvetica;fontSize=12;fontColor=default;" edge="1" parent="1" source="Uoe7jSDMilDtq9U6z6JU-12" target="Uoe7jSDMilDtq9U6z6JU-5">
          <mxGeometry relative="1" as="geometry" />
        </mxCell>
        <mxCell id="Uoe7jSDMilDtq9U6z6JU-22" style="edgeStyle=orthogonalEdgeStyle;rounded=0;orthogonalLoop=1;jettySize=auto;html=1;entryX=0.017;entryY=0.625;entryDx=0;entryDy=0;entryPerimeter=0;fontFamily=Helvetica;fontSize=12;fontColor=default;" edge="1" parent="1" source="Uoe7jSDMilDtq9U6z6JU-4" target="Uoe7jSDMilDtq9U6z6JU-12">
          <mxGeometry relative="1" as="geometry" />
        </mxCell>
        <mxCell id="Uoe7jSDMilDtq9U6z6JU-26" style="edgeStyle=orthogonalEdgeStyle;rounded=0;orthogonalLoop=1;jettySize=auto;html=1;entryX=0.5;entryY=0;entryDx=0;entryDy=0;fontFamily=Helvetica;fontSize=12;fontColor=default;" edge="1" parent="1" target="Uoe7jSDMilDtq9U6z6JU-5">
          <mxGeometry relative="1" as="geometry">
            <mxPoint x="420" y="330" as="sourcePoint" />
          </mxGeometry>
        </mxCell>
        <mxCell id="Uoe7jSDMilDtq9U6z6JU-27" value="Emprestar" style="ellipse;whiteSpace=wrap;html=1;strokeColor=default;align=center;verticalAlign=middle;fontFamily=Helvetica;fontSize=12;fontColor=default;fillColor=default;" vertex="1" parent="1">
          <mxGeometry x="300" y="290" width="120" height="80" as="geometry" />
        </mxCell>
        <mxCell id="Uoe7jSDMilDtq9U6z6JU-29" value="Ano de Publicação" style="ellipse;whiteSpace=wrap;html=1;aspect=fixed;strokeColor=default;align=center;verticalAlign=middle;fontFamily=Helvetica;fontSize=12;fontColor=default;fillColor=default;" vertex="1" parent="1">
          <mxGeometry x="90" y="25" width="50" height="50" as="geometry" />
        </mxCell>
        <mxCell id="Uoe7jSDMilDtq9U6z6JU-30" style="edgeStyle=orthogonalEdgeStyle;rounded=0;orthogonalLoop=1;jettySize=auto;html=1;entryX=0.825;entryY=0;entryDx=0;entryDy=0;entryPerimeter=0;fontFamily=Helvetica;fontSize=12;fontColor=default;" edge="1" parent="1" source="Uoe7jSDMilDtq9U6z6JU-29" target="Uoe7jSDMilDtq9U6z6JU-1">
          <mxGeometry relative="1" as="geometry" />
        </mxCell>
        <mxCell id="Uoe7jSDMilDtq9U6z6JU-31" value="Gênero" style="ellipse;whiteSpace=wrap;html=1;aspect=fixed;strokeColor=default;align=center;verticalAlign=middle;fontFamily=Helvetica;fontSize=12;fontColor=default;fillColor=default;" vertex="1" parent="1">
          <mxGeometry x="140" y="25" width="50" height="50" as="geometry" />
        </mxCell>
        <mxCell id="Uoe7jSDMilDtq9U6z6JU-33" style="edgeStyle=orthogonalEdgeStyle;rounded=0;orthogonalLoop=1;jettySize=auto;html=1;entryX=0.942;entryY=0.029;entryDx=0;entryDy=0;entryPerimeter=0;fontFamily=Helvetica;fontSize=12;fontColor=default;" edge="1" parent="1" source="Uoe7jSDMilDtq9U6z6JU-31" target="Uoe7jSDMilDtq9U6z6JU-1">
          <mxGeometry relative="1" as="geometry" />
        </mxCell>
        <mxCell id="Uoe7jSDMilDtq9U6z6JU-34" value="Id do Autor" style="ellipse;whiteSpace=wrap;html=1;aspect=fixed;strokeColor=default;align=center;verticalAlign=middle;fontFamily=Helvetica;fontSize=12;fontColor=default;fillColor=default;" vertex="1" parent="1">
          <mxGeometry x="510" y="10" width="60" height="60" as="geometry" />
        </mxCell>
        <mxCell id="Uoe7jSDMilDtq9U6z6JU-35" value="Nome" style="ellipse;whiteSpace=wrap;html=1;aspect=fixed;strokeColor=default;align=center;verticalAlign=middle;fontFamily=Helvetica;fontSize=12;fontColor=default;fillColor=default;" vertex="1" parent="1">
          <mxGeometry x="570" y="10" width="60" height="60" as="geometry" />
        </mxCell>
        <mxCell id="Uoe7jSDMilDtq9U6z6JU-36" value="Nacionalidade" style="ellipse;whiteSpace=wrap;html=1;aspect=fixed;strokeColor=default;align=center;verticalAlign=middle;fontFamily=Helvetica;fontSize=12;fontColor=default;fillColor=default;" vertex="1" parent="1">
          <mxGeometry x="630" y="-10" width="100" height="100" as="geometry" />
        </mxCell>
        <mxCell id="Uoe7jSDMilDtq9U6z6JU-68" style="edgeStyle=orthogonalEdgeStyle;rounded=0;orthogonalLoop=1;jettySize=auto;html=1;entryX=1;entryY=0.75;entryDx=0;entryDy=0;fontFamily=Helvetica;fontSize=12;fontColor=default;" edge="1" parent="1" source="Uoe7jSDMilDtq9U6z6JU-37" target="Uoe7jSDMilDtq9U6z6JU-4">
          <mxGeometry relative="1" as="geometry" />
        </mxCell>
        <mxCell id="Uoe7jSDMilDtq9U6z6JU-37" value="Número de identificação (por exemplo (RG ou CPF)" style="ellipse;whiteSpace=wrap;html=1;aspect=fixed;strokeColor=default;align=center;verticalAlign=middle;fontFamily=Helvetica;fontSize=12;fontColor=default;fillColor=default;" vertex="1" parent="1">
          <mxGeometry x="236.25" y="510" width="90" height="90" as="geometry" />
        </mxCell>
        <mxCell id="Uoe7jSDMilDtq9U6z6JU-67" style="edgeStyle=orthogonalEdgeStyle;rounded=0;orthogonalLoop=1;jettySize=auto;html=1;entryX=1;entryY=1;entryDx=0;entryDy=0;fontFamily=Helvetica;fontSize=12;fontColor=default;" edge="1" parent="1" source="Uoe7jSDMilDtq9U6z6JU-38" target="Uoe7jSDMilDtq9U6z6JU-4">
          <mxGeometry relative="1" as="geometry" />
        </mxCell>
        <mxCell id="Uoe7jSDMilDtq9U6z6JU-38" value="Multa (se houver)" style="ellipse;whiteSpace=wrap;html=1;aspect=fixed;strokeColor=default;align=center;verticalAlign=middle;fontFamily=Helvetica;fontSize=12;fontColor=default;fillColor=default;" vertex="1" parent="1">
          <mxGeometry x="270" y="600" width="72.5" height="72.5" as="geometry" />
        </mxCell>
        <mxCell id="Uoe7jSDMilDtq9U6z6JU-39" value="Data de Devolução" style="ellipse;whiteSpace=wrap;html=1;aspect=fixed;strokeColor=default;align=center;verticalAlign=middle;fontFamily=Helvetica;fontSize=12;fontColor=default;fillColor=default;" vertex="1" parent="1">
          <mxGeometry x="171.25" y="640" width="65" height="65" as="geometry" />
        </mxCell>
        <mxCell id="Uoe7jSDMilDtq9U6z6JU-40" value="Id do Empréstimo" style="ellipse;whiteSpace=wrap;html=1;aspect=fixed;strokeColor=default;align=center;verticalAlign=middle;fontFamily=Helvetica;fontSize=12;fontColor=default;fillColor=default;" vertex="1" parent="1">
          <mxGeometry x="100" y="640" width="66.25" height="66.25" as="geometry" />
        </mxCell>
        <mxCell id="Uoe7jSDMilDtq9U6z6JU-41" value="Data do Emprestimo" style="ellipse;whiteSpace=wrap;html=1;aspect=fixed;strokeColor=default;align=center;verticalAlign=middle;fontFamily=Helvetica;fontSize=12;fontColor=default;fillColor=default;" vertex="1" parent="1">
          <mxGeometry x="32.5" y="622.5" width="67.5" height="67.5" as="geometry" />
        </mxCell>
        <mxCell id="Uoe7jSDMilDtq9U6z6JU-42" value="Id Do Leitor" style="ellipse;whiteSpace=wrap;html=1;aspect=fixed;strokeColor=default;align=center;verticalAlign=middle;fontFamily=Helvetica;fontSize=12;fontColor=default;fillColor=default;" vertex="1" parent="1">
          <mxGeometry x="-17.5" y="622.5" width="50" height="50" as="geometry" />
        </mxCell>
        <mxCell id="Uoe7jSDMilDtq9U6z6JU-43" value="Nome" style="ellipse;whiteSpace=wrap;html=1;aspect=fixed;strokeColor=default;align=center;verticalAlign=middle;fontFamily=Helvetica;fontSize=12;fontColor=default;fillColor=default;" vertex="1" parent="1">
          <mxGeometry x="-120" y="430" width="50" height="50" as="geometry" />
        </mxCell>
        <mxCell id="Uoe7jSDMilDtq9U6z6JU-44" style="edgeStyle=orthogonalEdgeStyle;rounded=0;orthogonalLoop=1;jettySize=auto;html=1;fontFamily=Helvetica;fontSize=12;fontColor=default;" edge="1" parent="1" source="Uoe7jSDMilDtq9U6z6JU-36">
          <mxGeometry relative="1" as="geometry">
            <mxPoint x="660" y="140" as="targetPoint" />
          </mxGeometry>
        </mxCell>
        <mxCell id="Uoe7jSDMilDtq9U6z6JU-46" style="edgeStyle=orthogonalEdgeStyle;rounded=0;orthogonalLoop=1;jettySize=auto;html=1;exitX=0.5;exitY=1;exitDx=0;exitDy=0;entryX=0.417;entryY=-0.033;entryDx=0;entryDy=0;entryPerimeter=0;fontFamily=Helvetica;fontSize=12;fontColor=default;" edge="1" parent="1" source="Uoe7jSDMilDtq9U6z6JU-35" target="Uoe7jSDMilDtq9U6z6JU-3">
          <mxGeometry relative="1" as="geometry" />
        </mxCell>
        <mxCell id="Uoe7jSDMilDtq9U6z6JU-47" style="edgeStyle=orthogonalEdgeStyle;rounded=0;orthogonalLoop=1;jettySize=auto;html=1;exitX=0.5;exitY=1;exitDx=0;exitDy=0;entryX=1.117;entryY=0.325;entryDx=0;entryDy=0;entryPerimeter=0;fontFamily=Helvetica;fontSize=12;fontColor=default;" edge="1" parent="1" source="Uoe7jSDMilDtq9U6z6JU-34" target="Uoe7jSDMilDtq9U6z6JU-15">
          <mxGeometry relative="1" as="geometry" />
        </mxCell>
        <mxCell id="Uoe7jSDMilDtq9U6z6JU-62" style="edgeStyle=orthogonalEdgeStyle;rounded=0;orthogonalLoop=1;jettySize=auto;html=1;entryX=0.048;entryY=1.02;entryDx=0;entryDy=0;entryPerimeter=0;fontFamily=Helvetica;fontSize=12;fontColor=default;" edge="1" parent="1" source="Uoe7jSDMilDtq9U6z6JU-42" target="Uoe7jSDMilDtq9U6z6JU-4">
          <mxGeometry relative="1" as="geometry" />
        </mxCell>
        <mxCell id="Uoe7jSDMilDtq9U6z6JU-63" style="edgeStyle=orthogonalEdgeStyle;rounded=0;orthogonalLoop=1;jettySize=auto;html=1;entryX=0.127;entryY=1.01;entryDx=0;entryDy=0;entryPerimeter=0;fontFamily=Helvetica;fontSize=12;fontColor=default;" edge="1" parent="1" source="Uoe7jSDMilDtq9U6z6JU-41" target="Uoe7jSDMilDtq9U6z6JU-4">
          <mxGeometry relative="1" as="geometry" />
        </mxCell>
        <mxCell id="Uoe7jSDMilDtq9U6z6JU-64" style="edgeStyle=orthogonalEdgeStyle;rounded=0;orthogonalLoop=1;jettySize=auto;html=1;exitX=1;exitY=0.5;exitDx=0;exitDy=0;entryX=-0.02;entryY=0.87;entryDx=0;entryDy=0;entryPerimeter=0;fontFamily=Helvetica;fontSize=12;fontColor=default;" edge="1" parent="1" source="Uoe7jSDMilDtq9U6z6JU-43" target="Uoe7jSDMilDtq9U6z6JU-4">
          <mxGeometry relative="1" as="geometry" />
        </mxCell>
        <mxCell id="Uoe7jSDMilDtq9U6z6JU-65" style="edgeStyle=orthogonalEdgeStyle;rounded=0;orthogonalLoop=1;jettySize=auto;html=1;entryX=0.42;entryY=1.03;entryDx=0;entryDy=0;entryPerimeter=0;fontFamily=Helvetica;fontSize=12;fontColor=default;" edge="1" parent="1" source="Uoe7jSDMilDtq9U6z6JU-40" target="Uoe7jSDMilDtq9U6z6JU-4">
          <mxGeometry relative="1" as="geometry" />
        </mxCell>
        <mxCell id="Uoe7jSDMilDtq9U6z6JU-66" style="edgeStyle=orthogonalEdgeStyle;rounded=0;orthogonalLoop=1;jettySize=auto;html=1;entryX=0.651;entryY=0.99;entryDx=0;entryDy=0;entryPerimeter=0;fontFamily=Helvetica;fontSize=12;fontColor=default;" edge="1" parent="1" source="Uoe7jSDMilDtq9U6z6JU-39" target="Uoe7jSDMilDtq9U6z6JU-4">
          <mxGeometry relative="1" as="geometry" />
        </mxCell>
      </root>
    </mxGraphModel>
  </diagram>
</mxfile>
